<svg id="pref-map" viewBox="0 0 560 450" xmlns="http://www.w3.org/2000/svg" aria-label="静岡の地図">
  <defs>
    <radialGradient id="landGrad" cx="50%" cy="32%" r="80%">
      <stop offset="0%" stop-color="#2a2219"/><stop offset="100%" stop-color="#16120c"/>
    </radialGradient>
    <filter id="pinGlow" x="-80%" y="-80%" width="260%" height="260%">
      <feGaussianBlur stdDeviation="4" result="b"/><feMerge><feMergeNode in="b"/><feMergeNode in="SourceGraphic"/></feMerge>
    </filter>
  </defs>
  <path class="kyoto-land" fill-rule="evenodd" d="M447.9,123.1 C462.6,120.3 466.3,111.2 470.0,123.1 C473.6,135.0 464.4,179.1 470.0,194.7 C475.5,210.3 499.3,208.4 503.0,216.7 C506.7,224.9 490.1,234.1 492.0,244.2 C493.8,254.3 510.3,268.1 514.0,277.2 C517.7,286.4 520.4,287.3 514.0,299.3 C507.6,311.2 482.8,335.1 475.5,348.8 C468.1,362.6 477.3,372.7 470.0,381.9 C462.6,391.0 443.3,405.7 431.4,403.9 C419.5,402.0 401.1,389.2 398.4,370.8 C395.6,352.5 414.0,310.3 414.9,293.8 C415.8,277.2 404.8,278.2 403.9,271.7 C403.0,265.3 403.0,258.9 409.4,255.2 C415.8,251.6 446.1,256.1 442.4,249.7 C438.8,243.3 403.0,220.4 387.4,216.7 C371.8,213.0 358.9,221.3 348.8,227.7 C338.7,234.1 328.6,247.9 326.8,255.2 C325.0,262.6 344.2,265.3 337.8,271.7 C331.4,278.2 298.4,281.8 288.3,293.8 C278.2,305.7 284.6,328.6 277.2,343.3 C269.9,358.0 247.9,371.8 244.2,381.9 C240.5,392.0 265.3,403.9 255.2,403.9 C245.1,403.9 218.5,386.4 183.6,381.9 C148.8,377.3 68.9,384.6 46.0,376.4 C23.1,368.1 38.7,344.2 46.0,332.3 C53.3,320.4 73.5,327.7 90.0,304.8 C106.6,281.8 122.2,222.2 145.1,194.7 C168.0,167.1 213.9,159.8 227.7,139.6 C241.5,119.4 224.0,89.1 227.7,73.5 C231.4,57.9 243.3,43.2 249.7,46.0 C256.1,48.8 264.4,72.6 266.2,90.0 C268.1,107.5 257.1,139.6 260.7,150.6 C264.4,161.6 280.0,146.9 288.3,156.1 C296.5,165.3 302.0,199.2 310.3,205.7 C318.5,212.1 334.1,202.9 337.8,194.7 C341.5,186.4 329.6,169.9 332.3,156.1 C335.1,142.4 346.1,114.8 354.3,112.1 C362.6,109.3 366.3,137.8 381.9,139.6 C397.5,141.4 433.2,125.8 447.9,123.1 Z"/>
  <g id="pin-layer"></g>
</svg>
